<svg width="21" height="18" viewBox="0 0 21 18" fill="none" xmlns="http://www.w3.org/2000/svg">
<path d="M6.5338 2.91864C7.60268 2.31303 8.81023 1.99472 10.0387 1.99472C11.2673 1.99472 12.4748 2.31303 13.5437 2.91864C13.658 2.98485 13.7843 3.0278 13.9152 3.04501C14.0462 3.06221 14.1792 3.05334 14.3068 3.0189C14.4343 2.98446 14.5537 2.92514 14.6582 2.84434C14.7627 2.76354 14.8502 2.66287 14.9156 2.54812C15.0462 2.31818 15.0805 2.04593 15.0111 1.79079C14.9417 1.53564 14.7742 1.3183 14.5451 1.1862C13.1705 0.408642 11.618 0 10.0387 0C8.45945 0 6.90702 0.408642 5.53239 1.1862C5.30333 1.3183 5.13583 1.53564 5.06641 1.79079C4.997 2.04593 5.03131 2.31818 5.16187 2.54812C5.22729 2.66287 5.31477 2.76354 5.41926 2.84434C5.52376 2.92514 5.6432 2.98446 5.77072 3.0189C5.89824 3.05334 6.03132 3.06221 6.16228 3.04501C6.29324 3.0278 6.41951 2.98485 6.5338 2.91864ZM16.4678 8.19608C16.3638 7.95125 16.2433 7.71371 16.1073 7.48508C16.0386 7.37231 15.9482 7.27424 15.8414 7.19653C15.7346 7.11883 15.6135 7.06301 15.4851 7.03229C15.3566 7.00158 15.2234 6.99657 15.093 7.01756C14.9626 7.03856 14.8377 7.08514 14.7254 7.15462C14.5003 7.29337 14.3393 7.51548 14.2774 7.77249C14.2155 8.02949 14.2577 8.30055 14.3949 8.52655C14.5497 8.79343 14.6772 9.07526 14.7754 9.36774C14.8327 9.53982 14.9356 9.69313 15.0731 9.8113C15.2107 9.92947 15.3778 10.0081 15.5565 10.0387C16.2534 10.1589 16.8855 10.5211 17.3416 11.0614C17.7977 11.6018 18.0486 12.2857 18.05 12.9929C18.05 13.7896 17.7335 14.5538 17.1701 15.1172C16.6067 15.6806 15.8426 15.9971 15.0458 15.9971H3.68979C3.28123 15.9342 2.90213 15.7465 2.60451 15.4596C2.30688 15.1727 2.10531 14.8008 2.02745 14.3948C1.96729 14.1005 1.97414 13.7963 2.04748 13.505C2.12082 13.2136 2.25877 12.9425 2.45111 12.7117C2.64345 12.4809 2.88526 12.2963 3.15862 12.1716C3.43198 12.0469 3.72988 11.9854 4.03027 11.9914C4.29586 11.9914 4.55057 11.8859 4.73838 11.6981C4.92618 11.5103 5.03168 11.2556 5.03168 10.99C5.02967 10.114 5.26128 9.25325 5.70263 8.49651C5.76884 8.38221 5.81179 8.25595 5.829 8.12499C5.8462 7.99402 5.83733 7.86095 5.80289 7.73343C5.76845 7.60591 5.70912 7.48646 5.62833 7.38197C5.54753 7.27747 5.44686 7.19 5.33211 7.12457C5.10217 6.99402 4.82992 6.9597 4.57477 7.02912C4.31963 7.09853 4.10229 7.26604 3.97019 7.4951C3.50121 8.29347 3.20126 9.17968 3.08894 10.0988C2.2534 10.3023 1.50554 10.7692 0.955934 11.4306C0.488481 11.9796 0.177857 12.6445 0.0568338 13.3553C-0.0641895 14.0661 0.00887492 14.7963 0.268319 15.469C0.527762 16.1417 0.963965 16.732 1.53091 17.1774C2.09785 17.6228 2.77451 17.907 3.48951 17.9999H3.61969H15.0458C16.2469 17.9966 17.4067 17.5617 18.3138 16.7745C19.2209 15.9873 19.8148 14.9002 19.9872 13.7116C20.1596 12.523 19.899 11.312 19.253 10.2995C18.6069 9.28702 17.6184 8.54049 16.4678 8.19608ZM12.9128 5.98296C12.9128 5.98296 12.9128 5.98296 12.9128 5.92288C12.9647 5.86205 13.0085 5.79472 13.043 5.7226C13.1378 5.47554 13.131 5.20099 13.0241 4.95893C12.9171 4.71687 12.7187 4.52698 12.4722 4.43077C11.9121 4.22283 11.3255 4.09473 10.7297 4.05024C10.6296 4.05024 10.5294 4.05024 10.4293 4.05024C10.1593 4.03019 9.88816 4.03019 9.61815 4.05024C9.51474 4.04489 9.41113 4.04489 9.30772 4.05024C8.71192 4.09473 8.12535 4.22283 7.56526 4.43077C7.32598 4.53458 7.13665 4.72764 7.03753 4.96889C6.93841 5.21015 6.93732 5.48056 7.03451 5.7226C7.06863 5.78958 7.10885 5.85327 7.15468 5.91286C7.15136 5.94951 7.15136 5.98638 7.15468 6.02302C7.22093 6.13693 7.30902 6.23665 7.41389 6.31645C7.51877 6.39625 7.63836 6.45457 7.76581 6.48806C7.89326 6.52156 8.02608 6.52956 8.15663 6.51162C8.28719 6.49369 8.41291 6.45015 8.52661 6.38353C8.98585 6.12745 9.50293 5.99303 10.0287 5.99303C10.5545 5.99303 11.0716 6.12745 11.5309 6.38353C11.6474 6.45015 11.7761 6.49266 11.9094 6.50855C12.0427 6.52443 12.1778 6.51336 12.3067 6.476C12.4356 6.43863 12.5557 6.37573 12.6598 6.29103C12.7639 6.20633 12.85 6.10157 12.9128 5.98296ZM9.03733 8.9872C9.03733 9.18526 9.09607 9.37888 9.2061 9.54356C9.31614 9.70824 9.47254 9.83659 9.65552 9.91239C9.83851 9.98818 10.0399 10.008 10.2341 9.96937C10.4284 9.93073 10.6068 9.83536 10.7469 9.69531C10.8869 9.55526 10.9823 9.37682 11.0209 9.18257C11.0596 8.98831 11.0397 8.78696 10.9639 8.60398C10.8881 8.42099 10.7598 8.26459 10.5951 8.15456C10.4304 8.04452 10.2368 7.98579 10.0387 7.98579C9.77315 7.98579 9.51844 8.09129 9.33064 8.2791C9.14284 8.4669 9.03733 8.72161 9.03733 8.9872Z" fill="white"/>
</svg>
