<svg width="20" height="20" viewBox="0 0 20 20" fill="none" xmlns="http://www.w3.org/2000/svg">
<path d="M7.29 11.29L2 16.59V15C2 14.7348 1.89464 14.4804 1.70711 14.2929C1.51957 14.1054 1.26522 14 1 14C0.734784 14 0.48043 14.1054 0.292893 14.2929C0.105357 14.4804 0 14.7348 0 15V19C0.00157999 19.1307 0.028759 19.2598 0.0799999 19.38C0.181475 19.6243 0.375651 19.8185 0.62 19.92C0.740222 19.9712 0.869323 19.9984 1 20H5C5.26522 20 5.51957 19.8946 5.70711 19.7071C5.89464 19.5196 6 19.2652 6 19C6 18.7348 5.89464 18.4804 5.70711 18.2929C5.51957 18.1054 5.26522 18 5 18H3.41L8.71 12.71C8.8983 12.5217 9.00409 12.2663 9.00409 12C9.00409 11.7337 8.8983 11.4783 8.71 11.29C8.5217 11.1017 8.2663 10.9959 8 10.9959C7.7337 10.9959 7.4783 11.1017 7.29 11.29ZM3.41 2H5C5.26522 2 5.51957 1.89464 5.70711 1.70711C5.89464 1.51957 6 1.26522 6 1C6 0.734784 5.89464 0.48043 5.70711 0.292893C5.51957 0.105357 5.26522 0 5 0H1C0.869323 0.00157999 0.740222 0.028759 0.62 0.0799999C0.375651 0.181475 0.181475 0.375651 0.0799999 0.62C0.028759 0.740222 0.00157999 0.869323 0 1V5C0 5.26522 0.105357 5.51957 0.292893 5.70711C0.48043 5.89464 0.734784 6 1 6C1.26522 6 1.51957 5.89464 1.70711 5.70711C1.89464 5.51957 2 5.26522 2 5V3.41L7.29 8.71C7.38296 8.80373 7.49356 8.87812 7.61542 8.92889C7.73728 8.97966 7.86799 9.0058 8 9.0058C8.13201 9.0058 8.26272 8.97966 8.38458 8.92889C8.50644 8.87812 8.61704 8.80373 8.71 8.71C8.80373 8.61704 8.87812 8.50644 8.92889 8.38458C8.97966 8.26272 9.0058 8.13201 9.0058 8C9.0058 7.86799 8.97966 7.73728 8.92889 7.61542C8.87812 7.49356 8.80373 7.38296 8.71 7.29L3.41 2ZM19 14C18.7348 14 18.4804 14.1054 18.2929 14.2929C18.1054 14.4804 18 14.7348 18 15V16.59L12.71 11.29C12.5217 11.1017 12.2663 10.9959 12 10.9959C11.7337 10.9959 11.4783 11.1017 11.29 11.29C11.1017 11.4783 10.9959 11.7337 10.9959 12C10.9959 12.2663 11.1017 12.5217 11.29 12.71L16.59 18H15C14.7348 18 14.4804 18.1054 14.2929 18.2929C14.1054 18.4804 14 18.7348 14 19C14 19.2652 14.1054 19.5196 14.2929 19.7071C14.4804 19.8946 14.7348 20 15 20H19C19.1307 19.9984 19.2598 19.9712 19.38 19.92C19.6243 19.8185 19.8185 19.6243 19.92 19.38C19.9712 19.2598 19.9984 19.1307 20 19V15C20 14.7348 19.8946 14.4804 19.7071 14.2929C19.5196 14.1054 19.2652 14 19 14ZM19.92 0.62C19.8185 0.375651 19.6243 0.181475 19.38 0.0799999C19.2598 0.028759 19.1307 0.00157999 19 0H15C14.7348 0 14.4804 0.105357 14.2929 0.292893C14.1054 0.48043 14 0.734784 14 1C14 1.26522 14.1054 1.51957 14.2929 1.70711C14.4804 1.89464 14.7348 2 15 2H16.59L11.29 7.29C11.1963 7.38296 11.1219 7.49356 11.0711 7.61542C11.0203 7.73728 10.9942 7.86799 10.9942 8C10.9942 8.13201 11.0203 8.26272 11.0711 8.38458C11.1219 8.50644 11.1963 8.61704 11.29 8.71C11.383 8.80373 11.4936 8.87812 11.6154 8.92889C11.7373 8.97966 11.868 9.0058 12 9.0058C12.132 9.0058 12.2627 8.97966 12.3846 8.92889C12.5064 8.87812 12.617 8.80373 12.71 8.71L18 3.41V5C18 5.26522 18.1054 5.51957 18.2929 5.70711C18.4804 5.89464 18.7348 6 19 6C19.2652 6 19.5196 5.89464 19.7071 5.70711C19.8946 5.51957 20 5.26522 20 5V1C19.9984 0.869323 19.9712 0.740222 19.92 0.62Z" fill="white"/>
</svg>
